<svg xmlns="http://www.w3.org/2000/svg" width="24" height="24" viewBox="0 0 24 24" fill="none">
  <circle cx="12" cy="12" r="11.5" fill="white" stroke="#0052CC"/>
  <path d="M8 12.4C8 15.8292 9.5222 17.6 12.4296 17.6C14.2106 17.6 15.2 17.1222 15.2 17.1222C15.1848 16.7005 15.0326 16.293 14.7281 16.0259C14.7281 16.0259 13.8148 16.3492 12.6123 16.3492C10.8465 16.3492 9.61353 15.5481 9.61353 12.4141C9.61353 9.28 10.8465 8.4227 12.6123 8.4227C13.693 8.4227 14.5759 8.74594 14.5759 8.74594C14.8499 8.46486 15.063 8.14162 15.0326 7.67783C15.0326 7.67783 14.1192 7.2 12.4296 7.2C9.50698 7.2 8 8.99892 8 12.4Z" fill="#0052CC"/>
</svg>