<svg xmlns="http://www.w3.org/2000/svg" width="30" height="30" viewBox="0 0 30 30" fill="none">
  <g clip-path="url(#clip0_2669_22675)">
    <path d="M15 0.46875C23.0274 0.46875 29.5313 6.97266 29.5313 15C29.5313 23.0273 23.0274 29.5312 15 29.5312C6.97269 29.5312 0.468781 23.0273 0.468781 15C0.468781 6.97266 6.97269 0.46875 15 0.46875ZM13.3067 8.88281L17.7305 13.125H7.03128C6.25198 13.125 5.62503 13.752 5.62503 14.5312V15.4688C5.62503 16.248 6.25198 16.875 7.03128 16.875H17.7305L13.3067 21.1172C12.7383 21.6621 12.7266 22.5703 13.2832 23.127L13.9278 23.7656C14.4785 24.3164 15.3692 24.3164 15.9141 23.7656L23.6895 15.9961C24.2403 15.4453 24.2403 14.5547 23.6895 14.0098L15.9141 6.22852C15.3633 5.67773 14.4727 5.67773 13.9278 6.22852L13.2832 6.86719C12.7266 7.42969 12.7383 8.33789 13.3067 8.88281Z" fill="#0052CC"/>
  </g>
  <defs>
    <clipPath id="clip0_2669_22675">
      <rect width="30" height="30" fill="white"/>
    </clipPath>
  </defs>
</svg>