<svg xmlns="http://www.w3.org/2000/svg" width="12" height="12" viewBox="0 0 12 12" fill="none">
  <g clip-path="url(#clip0_2669_22385)">
    <path d="M5 6.5C5.21473 6.78706 5.48868 7.02459 5.80328 7.19647C6.11787 7.36835 6.46575 7.47056 6.82333 7.49617C7.1809 7.52178 7.53979 7.47018 7.87567 7.34489C8.21155 7.2196 8.51656 7.02353 8.77 6.77L10.27 5.27C10.7254 4.79849 10.9774 4.16699 10.9717 3.5115C10.966 2.856 10.7031 2.22897 10.2395 1.76545C9.77603 1.30193 9.14899 1.03901 8.4935 1.03331C7.83801 1.02762 7.20651 1.2796 6.735 1.735L5.875 2.59" stroke="white" stroke-width="0.977778" stroke-linecap="round" stroke-linejoin="round"/>
    <path d="M6.99998 5.5C6.78525 5.21294 6.5113 4.97541 6.1967 4.80353C5.88211 4.63165 5.53422 4.52944 5.17665 4.50383C4.81908 4.47822 4.46018 4.52982 4.12431 4.65511C3.78843 4.7804 3.48342 4.97647 3.22998 5.23L1.72998 6.73C1.27458 7.20151 1.0226 7.83301 1.02829 8.4885C1.03399 9.144 1.29691 9.77103 1.76043 10.2345C2.22395 10.6981 2.85098 10.961 3.50647 10.9667C4.16197 10.9724 4.79347 10.7204 5.26498 10.265L6.11998 9.41" stroke="white" stroke-width="0.977778" stroke-linecap="round" stroke-linejoin="round"/>
  </g>
  <defs>
    <clipPath id="clip0_2669_22385">
      <rect width="12" height="12" fill="white"/>
    </clipPath>
  </defs>
</svg>