<svg xmlns="http://www.w3.org/2000/svg" width="26" height="26" viewBox="0 0 26 26" fill="none">
  <circle cx="13" cy="13" r="12.4889" fill="white" stroke="#5E6C84" stroke-width="0.977778"/>
  <path d="M5.19999 8.14558V16.8727C5.19999 17.0007 5.23601 17.0985 5.23601 17.0985C5.27203 17.1967 5.35797 17.2563 5.35797 17.2563C5.4436 17.3157 5.5068 17.3542 5.5068 17.3542C5.56999 17.3926 5.71882 17.4052 5.71882 17.4052C5.86764 17.418 5.92199 17.4222 5.92199 17.4222C5.97602 17.4263 6.15234 17.4222 6.15234 17.4222C6.32833 17.418 6.35551 17.418 6.35551 17.418C6.35551 18.3215 7.03264 18.9605 7.03264 18.9605C7.70946 19.6 8.66655 19.6 8.66655 19.6C9.62364 19.6 10.3005 18.9608 10.3005 18.9608C10.9776 18.3215 10.9776 17.4183 10.9776 17.4183H14.4445C14.4445 18.3218 15.1216 18.9608 15.1216 18.9608C15.7984 19.6 16.7555 19.6 16.7555 19.6C17.7126 19.6 18.3894 18.9608 18.3894 18.9608C19.0665 18.3215 19.0665 17.4183 19.0665 17.4183H19.6445C19.6716 17.4183 19.8476 17.4225 19.8476 17.4225C20.0236 17.4266 20.078 17.4225 20.078 17.4225C20.132 17.4183 20.2812 17.4055 20.2812 17.4055C20.43 17.3926 20.4932 17.3545 20.4932 17.3545C20.5564 17.316 20.642 17.2563 20.642 17.2563C20.7276 17.1967 20.764 17.0985 20.764 17.0985C20.8 17.0004 20.8 16.8727 20.8 16.8727C20.8 16.6511 20.6284 16.4891 20.6284 16.4891C20.4568 16.3271 20.2221 16.3271 20.2221 16.3271V13.5999C20.2221 13.5315 20.2265 13.3016 20.2265 13.3016C20.2309 13.0716 20.2265 12.9776 20.2265 12.9776C20.2221 12.8839 20.2041 12.6835 20.2041 12.6835C20.186 12.4833 20.1453 12.3682 20.1453 12.3682C20.1045 12.2531 20.0189 12.1084 20.0189 12.1084C19.9333 11.9634 19.8157 11.8528 19.8157 11.8528L18.0286 10.1653C17.857 10.0033 17.5726 9.89267 17.5726 9.89267C17.2882 9.78201 17.0446 9.78201 17.0446 9.78201H15.6003V8.14558C15.6003 7.92395 15.4287 7.76197 15.4287 7.76197C15.2568 7.6 15.0221 7.6 15.0221 7.6H5.77759C5.54282 7.6 5.37124 7.76197 5.37124 7.76197C5.19999 7.92395 5.19999 8.14558 5.19999 8.14558ZM7.51103 17.418C7.51103 16.9747 7.85418 16.6511 7.85418 16.6511C8.19701 16.3271 8.66655 16.3271 8.66655 16.3271C9.13609 16.3271 9.47892 16.6511 9.47892 16.6511C9.82207 16.975 9.82207 17.418 9.82207 17.418C9.82207 17.8613 9.47892 18.1849 9.47892 18.1849C9.13577 18.5088 8.66655 18.5088 8.66655 18.5088C8.19701 18.5088 7.85418 18.1849 7.85418 18.1849C7.51103 17.8613 7.51103 17.418 7.51103 17.418ZM19.0665 13.0546H15.6V10.8729H17.0263C17.1435 10.8729 17.225 10.9495 17.225 10.9495L18.9853 12.6113C19.0665 12.688 19.0665 12.7989 19.0665 12.7989V13.0546ZM15.6 17.418C15.6 16.9747 15.9431 16.6511 15.9431 16.6511C16.286 16.3271 16.7555 16.3271 16.7555 16.3271C17.225 16.3271 17.5679 16.6511 17.5679 16.6511C17.911 16.975 17.911 17.418 17.911 17.418C17.911 17.8613 17.5679 18.1849 17.5679 18.1849C17.2247 18.5088 16.7555 18.5088 16.7555 18.5088C16.286 18.5088 15.9431 18.1849 15.9431 18.1849C15.6 17.8613 15.6 17.418 15.6 17.418Z" fill="#5E6C84"/>
</svg>