<svg xmlns="http://www.w3.org/2000/svg" width="30" height="30" viewBox="0 0 30 30" fill="none">
  <g clip-path="url(#clip0_2669_22673)">
    <path d="M15 29.5313C6.97269 29.5313 0.46878 23.0273 0.468779 15C0.468779 6.97266 6.97268 0.468752 15 0.468751C23.0274 0.468751 29.5313 6.97266 29.5313 15C29.5313 23.0273 23.0274 29.5313 15 29.5313ZM16.6934 21.1172L12.2696 16.875L22.9688 16.875C23.7481 16.875 24.375 16.248 24.375 15.4688L24.375 14.5313C24.375 13.752 23.7481 13.125 22.9688 13.125L12.2696 13.125L16.6934 8.88281C17.2617 8.33789 17.2735 7.42969 16.7168 6.87305L16.0723 6.23438C15.5215 5.68359 14.6309 5.6836 14.086 6.23438L6.31058 14.0039C5.75979 14.5547 5.75979 15.4453 6.31058 15.9902L14.086 23.7715C14.6367 24.3223 15.5274 24.3223 16.0723 23.7715L16.7168 23.1328C17.2735 22.5703 17.2617 21.6621 16.6934 21.1172Z" fill="#6B768A"/>
  </g>
  <defs>
    <clipPath id="clip0_2669_22673">
      <rect width="30" height="30" fill="white" transform="translate(30 30) rotate(180)"/>
    </clipPath>
  </defs>
</svg>