<svg xmlns="http://www.w3.org/2000/svg" width="26" height="26" viewBox="0 0 26 26" fill="none">
  <circle cx="13" cy="13" r="12.5" fill="white" stroke="#5E6C84"/>
  <path d="M21.1049 14.7508L20.5934 13.7428L17.859 14.8746L14.2393 13.0001L17.8393 11.1256L20.5934 12.2574L21.1049 11.2494L19.1574 10.4359L21.4 9.28641L20.7902 8.31378L18.5475 9.48094L18.7443 7.57104L17.5246 7.46494L17.2295 10.1706L13.6098 12.0451V8.2961L16.0885 6.7222L15.3607 5.82031L13.6098 6.93442V4.6001H12.3902V6.93442L10.6394 5.82031L9.93116 6.7222L12.3902 8.27841V12.0451L8.7705 10.1706L8.47542 7.46494L7.25574 7.57104L7.45246 9.48094L5.20985 8.31378L4.60001 9.28641L6.84263 10.4359L4.89509 11.2494L5.40657 12.2574L8.14099 11.1256L11.7607 13.0001L8.16067 14.8746L5.40657 13.7428L4.89509 14.7508L6.84263 15.5643L4.60001 16.7138L5.20985 17.6864L7.45246 16.5193L7.25574 18.4291L8.47542 18.5353L8.7705 15.8296L12.3902 13.955V17.7041L9.91148 19.278L10.6394 20.1799L12.3902 19.0658V21.4001H13.6098V19.0658L15.3607 20.1799L16.0689 19.278L13.6098 17.7218V13.955L17.2295 15.8296L17.5246 18.5353L18.7443 18.4291L18.5475 16.5193L20.7902 17.6864L21.4 16.7138L19.1574 15.5643L21.1049 14.7508Z" fill="#5E6C84"/>
</svg>